<?xml version="1.0" standalone="no"?>
<!DOCTYPE svg PUBLIC "-//W3C//DTD SVG 20010904//EN"
 "http://www.w3.org/TR/2001/REC-SVG-20010904/DTD/svg10.dtd">
<svg version="1.0" xmlns="http://www.w3.org/2000/svg"
 width="1024.000000pt" height="1024.000000pt" viewBox="0 0 1024.000000 1024.000000"
 preserveAspectRatio="xMidYMid meet">
<metadata>
Created by potrace 1.14, written by Peter Selinger 2001-2017
</metadata>
<g transform="translate(0.000000,1024.000000) scale(0.100000,-0.100000)"
fill="#000000" stroke="none">
<path d="M2415 9419 c-689 -72 -1286 -576 -1461 -1234 -62 -235 -57 3 -61
-2865 -3 -1839 -1 -2649 7 -2730 76 -802 691 -1429 1500 -1529 55 -7 538 -11
1397 -11 l1313 0 0 2080 0 2080 2075 0 2076 0 -4 1363 c-4 1488 0 1385 -62
1615 -48 175 -129 348 -237 504 -287 415 -731 676 -1237 727 -125 13 -5183 13
-5306 0z m705 -1704 l0 -295 295 0 295 0 0 -160 0 -160 -295 0 -295 0 0 -295
0 -295 -160 0 -160 0 0 295 0 295 -295 0 -295 0 0 160 0 160 295 0 295 0 0
295 0 295 160 0 160 0 0 -295z m4820 -455 l0 -160 -750 0 -750 0 0 160 0 160
750 0 750 0 0 -160z m-4765 -3650 l210 210 112 -112 113 -113 -210 -210 -210
-210 210 -210 210 -210 -112 -112 -113 -113 -210 210 -210 210 -210 -210 -210
-210 -112 112 -113 113 210 210 210 210 -210 210 -210 210 112 112 113 113
210 -210 210 -210 210 210z"/>
<path d="M6460 3520 l0 -160 750 0 750 0 0 160 0 160 -750 0 -750 0 0 -160z"/>
<path d="M6460 2840 l0 -160 750 0 750 0 0 160 0 160 -750 0 -750 0 0 -160z"/>
</g>
</svg>
